<?xml version="1.0" encoding="UTF-8" standalone="no"?><!DOCTYPE svg PUBLIC "-//W3C//DTD SVG 1.1//EN" "http://www.w3.org/Graphics/SVG/1.1/DTD/svg11.dtd"><svg width="100%" height="100%" viewBox="0 0 2134 2134" version="1.1" xmlns="http://www.w3.org/2000/svg" xmlns:xlink="http://www.w3.org/1999/xlink" xml:space="preserve" xmlns:serif="http://www.serif.com/" style="fill-rule:evenodd;clip-rule:evenodd;stroke-linejoin:round;stroke-miterlimit:2;"><g id="OUTLINE"><path d="M1920,163.333l-0,-56.666l-71.111,-0l-0,56.666c-0,105.378 -83.295,191.111 -185.677,191.111l-27.657,0l0,71.111l27.657,0c102.382,0 185.677,85.734 185.677,191.111l-0,56.667l71.111,0l-0,-56.667c-0,-105.377 83.294,-191.111 185.677,-191.111l27.656,0l-0,-71.111l-27.656,0c-102.383,0 -185.677,-85.733 -185.677,-191.111Zm-35.556,320.313c-22.269,-38.554 -54.017,-70.791 -92.227,-93.646c38.21,-22.855 69.958,-55.092 92.227,-93.646c22.269,38.554 54.018,70.791 92.227,93.646c-38.209,22.855 -69.958,55.092 -92.227,93.646Z" style="fill:#0098aa;fill-rule:nonzero;"/><path d="M1137.78,426.666l71.111,0c0.111,-97.483 80.294,-177.666 177.778,-177.777l-0,-71.111c-97.484,-0.112 -177.667,-80.294 -177.778,-177.778l-71.111,0c-0.112,97.484 -80.294,177.666 -177.778,177.778l0,71.111c97.484,0.111 177.666,80.294 177.778,177.777Zm35.555,-298.576c21.064,34.918 50.326,64.179 85.243,85.243c-34.917,21.064 -64.179,50.326 -85.243,85.243c-21.064,-34.917 -50.325,-64.179 -85.243,-85.243c34.918,-21.064 64.179,-50.325 85.243,-85.243Z" style="fill:#0098aa;fill-rule:nonzero;"/><path d="M320,1777.78l0,8.889c-0.083,73.113 -60.22,133.25 -133.333,133.333l-8.889,0l0,71.111l8.889,0c73.113,0.083 133.25,60.22 133.333,133.334l0,8.888l71.111,0l0,-8.888c0.083,-73.114 60.221,-133.251 133.334,-133.334l8.889,0l-0,-71.111l-8.889,0c-73.113,-0.083 -133.251,-60.22 -133.334,-133.333l0,-8.889l-71.111,0Zm89.345,177.778c-21.11,14.439 -39.35,32.679 -53.789,53.789c-14.439,-21.11 -32.68,-39.35 -53.789,-53.789c21.109,-14.439 39.35,-32.68 53.789,-53.789c14.439,21.109 32.679,39.35 53.789,53.789Z" style="fill:#0098aa;fill-rule:nonzero;"/><path d="M2098.61,918.611l-380.959,-232.808c-160.818,-98.408 -360.493,-110.591 -532.083,-32.465l-1.193,0.542c-74.735,33.988 -160.643,33.992 -235.382,0.013l-1.246,-0.569c-171.586,-78.103 -371.245,-65.915 -532.057,32.479l-380.955,232.808c-21.486,13.228 -34.646,36.691 -34.731,61.922c-0.048,13.858 3.903,27.44 11.375,39.11c-16.007,23.309 -14.981,54.533 2.523,76.741l260.933,330.516c175.835,222.286 437.277,360.7 719.961,381.163c23.845,1.702 47.86,2.553 71.875,2.553c24.015,-0 48.029,-0.851 71.879,-2.553c282.682,-20.464 544.123,-158.878 719.956,-381.163l260.925,-330.507c17.512,-22.208 18.542,-53.438 2.53,-76.75c7.474,-11.67 11.424,-25.252 11.376,-39.11c-0.085,-25.23 -13.243,-48.692 -34.727,-61.922Zm-1605.97,396.944l111.808,0l-0,64.017c-38.692,-18.753 -76.049,-40.143 -111.808,-64.017Zm182.919,0l142.222,0l-0,137.242c-48.451,-10.332 -96.007,-24.486 -142.222,-42.329l-0,-94.913Zm213.333,0l142.222,0l0,165.436c-35.846,-1.365 -71.585,-4.784 -107.04,-10.241l-35.182,-5.412l-0,-149.783Zm213.333,0l142.222,0l0,149.783l-35.186,5.412c-35.454,5.457 -71.191,8.876 -107.036,10.241l0,-165.436Zm213.333,0l142.223,0l-0,94.913c-46.216,17.843 -93.772,31.997 -142.223,42.329l0,-137.242Zm213.334,0l111.807,0c-35.759,23.874 -73.116,45.264 -111.807,64.017l-0,-64.017Zm205.898,-71.111l-1336.24,-0l-257.545,-209.259l2.562,-0.801l91.846,36.74c168.752,67.666 348.921,102.363 530.734,102.209l601.05,-0c181.812,0.154 361.981,-34.543 530.733,-102.209l91.847,-36.74l2.563,0.801l-257.548,209.259Zm94.245,-260.291l53.251,16.641l-10.764,4.305c-42.333,16.918 -85.486,31.706 -129.297,44.308l-0,-90.272c29.075,7.733 58.012,16.073 86.81,25.018Zm-157.921,83.629c-35.278,8.112 -70.833,14.81 -106.667,20.094l0,-167.875c35.721,6.244 71.276,13.414 106.667,21.508l-0,126.273Zm-177.778,28.594c-41.775,3.87 -83.822,5.819 -126.141,5.846l-16.081,-0l-0,-208.284c47.598,3.355 95.005,8.33 142.222,14.926l0,187.512Zm-213.333,5.846l-177.778,-0l0,-213.559l101.098,-0c25.593,-0 51.153,0.474 76.68,1.422l-0,212.137Zm-248.889,-0l-177.778,-0l0,-212.137c25.527,-0.931 51.087,-1.405 76.68,-1.422l101.098,-0l0,213.559Zm-248.889,-0l-16.08,-0c-42.301,-0 -84.348,-1.949 -126.142,-5.847l0,-187.511c47.198,-6.588 94.606,-11.563 142.222,-14.926l0,208.284Zm-213.333,-14.346c-35.826,-5.246 -71.381,-11.944 -106.667,-20.094l0,-126.273c35.382,-8.098 70.938,-15.267 106.667,-21.508l0,167.875Zm-177.778,-38.469c-43.811,-12.602 -86.964,-27.39 -129.296,-44.308l-10.765,-4.305l53.247,-16.641c28.783,-8.994 57.721,-17.334 86.814,-25.019l0,90.273Zm-319.301,-70.119l380.959,-232.808c140.7,-86.095 315.391,-96.763 465.521,-28.429l1.246,0.568c93.433,42.478 200.828,42.478 294.262,0l1.219,-0.555c150.135,-68.348 324.839,-57.684 465.547,28.416l380.964,232.808c0.43,0.267 0.693,0.739 0.694,1.245c0.038,0.473 -0.192,0.93 -0.595,1.181c-0.356,0.315 -0.863,0.399 -1.302,0.217l-210.082,-65.651c-209.396,-65.475 -427.529,-98.764 -646.923,-98.728l-273.307,-0c-219.395,-0.036 -437.529,33.254 -646.927,98.728l-210.073,65.651c-0.143,0.045 -0.291,0.068 -0.44,0.068c-0.802,-0 -1.461,-0.66 -1.461,-1.462c-0,-0.001 -0,-0.002 -0,-0.004c0.001,-0.507 0.266,-0.98 0.698,-1.245Zm1730.88,403.55c-177.712,225.106 -449.219,356.68 -736.019,356.68c-286.801,-0 -558.307,-131.574 -736.02,-356.68l-224.449,-284.301l270.959,220.156c139.07,112.935 305.719,186.853 482.778,214.141l53.324,8.203c101.67,15.661 205.141,15.661 306.81,-0l53.329,-8.203l0.004,-0c177.058,-27.289 343.705,-101.207 482.773,-214.141l270.959,-220.16l-224.448,284.305Z" style="fill:#0098aa;fill-rule:nonzero;"/></g></svg>