<?xml version="1.0" encoding="UTF-8" standalone="no"?><!DOCTYPE svg PUBLIC "-//W3C//DTD SVG 1.1//EN" "http://www.w3.org/Graphics/SVG/1.1/DTD/svg11.dtd"><svg width="100%" height="100%" viewBox="0 0 200 200" version="1.1" xmlns="http://www.w3.org/2000/svg" xmlns:xlink="http://www.w3.org/1999/xlink" xml:space="preserve" xmlns:serif="http://www.serif.com/" style="fill-rule:evenodd;clip-rule:evenodd;stroke-linejoin:round;stroke-miterlimit:2;"><path d="M75,27.667c6.792,-8 16.458,-12.042 25.792,-10.792c6.958,0.917 13.541,3.833 18.625,8.167c5.666,4.875 13.833,6.166 20.875,3.375c6.333,-2.542 13.583,-3.209 20.5,-1.917c6.875,1.292 12.958,5.417 17.125,11.583c4.791,7.125 6.541,16.209 4.791,24.834c-2.166,10.583 -8.125,19.791 -12.75,25.625c-11.833,15.083 -15.208,30.166 -18.208,43.541c-1.375,6.167 -2.708,11.959 -4.708,17.5c-1.542,4.25 -5.292,7.584 -10,8.709c-0.417,0.083 -0.75,0.041 -1.042,-0.167c-0.417,-0.292 -0.833,-1.042 -0.875,-2.125c0,-1.792 -0.042,-3.875 -0.042,-6.083c-0.041,-19.375 -0.125,-48.584 -18.208,-51.5c-17.917,-2.875 -28.125,24.458 -34.875,42.541c-0.792,2.125 -1.542,4.084 -2.208,5.792c-0.375,0.958 -1.084,1.75 -1.834,2c-0.458,0.167 -0.833,0.083 -1.458,-0.292c-3.625,-2.25 -5.833,-6.333 -5.833,-10.625c-0,-5.958 0.833,-11.916 1.666,-18.25c1.834,-13.541 3.875,-28.875 -2.041,-46.833c-0.75,-2.25 -1.417,-4.583 -1.917,-6.875c-0.5,-2.25 -2.75,-3.625 -5,-3.125c-2.25,0.5 -3.625,2.75 -3.125,5c0.583,2.542 1.333,5.125 2.125,7.625c5.333,16.125 3.458,29.833 1.708,43.083c-0.875,6.625 -1.75,12.875 -1.75,19.375c0,7.125 3.75,13.917 9.959,17.792c2.541,1.583 5.458,1.958 8.291,1c3.125,-1.042 5.667,-3.542 7,-6.833c0.667,-1.709 1.417,-3.75 2.25,-5.917c5.084,-13.625 14.625,-39 25.75,-37.208c11.084,1.791 11.125,28.791 11.167,43.291c-0,2.292 -0,4.417 0.042,6.25c0.083,3.459 1.583,6.584 4.125,8.542c1.666,1.292 3.625,1.958 5.75,1.958c0.833,0 1.708,-0.083 2.583,-0.333c7.292,-1.75 13.125,-6.958 15.667,-13.917c2.208,-6.041 3.541,-12.125 5,-18.541c2.958,-13.084 6,-26.625 16.666,-40.209c5.167,-6.541 11.834,-16.916 14.375,-29.125c2.209,-10.833 0,-22.166 -6.041,-31.166c-5.417,-8.042 -13.417,-13.417 -22.5,-15.125c-8.417,-1.584 -17.375,-0.709 -25.125,2.375c-4.167,1.666 -9,0.916 -12.334,-1.959c-6.25,-5.375 -14.416,-8.958 -22.958,-10.083c-12.167,-1.625 -24.583,3.5 -33.208,13.625c-1.5,1.75 -1.292,4.375 0.458,5.875c1.75,1.5 4.375,1.292 5.875,-0.458l-0.125,-0Z" style="fill:#0098aa;fill-rule:nonzero;"/><path d="M132,45.458c11.125,0 19.167,-5.291 19.583,-5.583c1.917,-1.292 2.417,-3.833 1.125,-5.75c-1.25,-1.917 -3.833,-2.417 -5.75,-1.167c-0.083,0.042 -8.541,5.5 -19.041,3.834c-10.375,-1.667 -16.417,-9.292 -16.542,-9.5c-1.375,-1.834 -4,-2.209 -5.833,-0.834c-1.834,1.375 -2.209,4 -0.834,5.834c0.334,0.416 8,10.458 21.875,12.708c1.875,0.292 3.667,0.417 5.417,0.417l0,0.041Z" style="fill:#0098aa;fill-rule:nonzero;"/><path d="M179.167,116.667l-4.167,-0c-2.292,-0 -4.167,1.875 -4.167,4.166c0,2.292 1.875,4.167 4.167,4.167l4.167,0c2.291,0 4.166,1.875 4.166,4.167l0,41.666c0,6.875 -5.625,12.5 -12.5,12.5l-141.666,0c-6.875,0 -12.5,-5.625 -12.5,-12.5l-0,-41.666c-0,-2.292 1.875,-4.167 4.166,-4.167l33.334,0c2.291,0 4.166,-1.875 4.166,-4.167c0,-2.291 -1.875,-4.166 -4.166,-4.166l-33.334,-0c-6.875,-0 -12.5,5.625 -12.5,12.5l0,41.666c0,11.5 9.334,20.834 20.834,20.834l141.666,-0c11.5,-0 20.834,-9.334 20.834,-20.834l-0,-41.666c-0,-6.875 -5.625,-12.5 -12.5,-12.5Z" style="fill:#0098aa;fill-rule:nonzero;"/><path d="M12.5,58.333l56.583,0c3.125,0 6.209,0.709 9.042,2.042l19.708,14.167c1.5,1.083 3.209,1.625 4.875,1.625c2.084,-0 4.167,-0.834 5.792,-2.417c2.958,-2.875 3.375,-7.25 1.042,-10.667l-13.667,-19.958c-3.833,-6.125 -10.417,-9.792 -17.667,-9.792l-65.708,0c-2.292,0 -4.167,1.875 -4.167,4.167l0,16.667c0,2.291 1.875,4.166 4.167,4.166Zm4.167,-16.666l61.583,-0c4.333,-0 8.292,2.208 10.708,6l13.75,20.125l-20,-14.375c0,-0 -0.375,-0.25 -0.583,-0.334c-4.042,-2 -8.542,-3.083 -13.042,-3.083l-52.416,0l-0,-8.333Z" style="fill:#0098aa;fill-rule:nonzero;"/><path d="M30.5,96.042c-2.208,-0.75 -4.542,0.458 -5.25,2.625c-0.708,2.166 0.458,4.541 2.625,5.291l12.5,4.167c0.458,0.167 0.875,0.208 1.333,0.208c1.75,0 3.375,-1.125 3.959,-2.833c0.708,-2.167 -0.459,-4.542 -2.625,-5.292l-12.5,-4.166l-0.042,-0Z" style="fill:#0098aa;fill-rule:nonzero;"/><path d="M50,95.833c0.792,0 1.583,-0.208 2.292,-0.708c1.916,-1.292 2.416,-3.875 1.166,-5.792l-8.333,-12.5c-1.292,-1.916 -3.875,-2.416 -5.792,-1.166c-1.916,1.291 -2.416,3.875 -1.166,5.791l8.333,12.5c0.792,1.209 2.125,1.875 3.458,1.875l0.042,0Z" style="fill:#0098aa;fill-rule:nonzero;"/></svg>