<?xml version="1.0" encoding="UTF-8" standalone="no"?><!DOCTYPE svg PUBLIC "-//W3C//DTD SVG 1.1//EN" "http://www.w3.org/Graphics/SVG/1.1/DTD/svg11.dtd"><svg width="100%" height="100%" viewBox="0 0 200 200" version="1.1" xmlns="http://www.w3.org/2000/svg" xmlns:xlink="http://www.w3.org/1999/xlink" xml:space="preserve" xmlns:serif="http://www.serif.com/" style="fill-rule:evenodd;clip-rule:evenodd;stroke-linejoin:round;stroke-miterlimit:2;"><path d="M141.042,89.958c-1.542,-3.083 -4.084,-5.625 -7.167,-7.166l-4.333,-2.167c-0.959,-0.458 -1.667,-1.292 -1.917,-2.333c-0.292,-1.084 -0.125,-2.167 0.5,-3.125l7.25,-10.917c3.208,-4.792 2.583,-11.208 -1.5,-15.25l-7.5,-7.5c-1.083,-1.083 -1.417,-2.708 -0.792,-4.125l5.75,-13.458c0.459,-1.084 0.459,-2.334 -0.041,-3.375c-0.5,-1.084 -1.417,-1.875 -2.542,-2.25c-3.25,-1 -6.625,-1.584 -9.917,-1.667c-9.75,-0.25 -19.458,2.375 -27.458,7.375c-4.5,2.792 -10.333,2.792 -14.792,0c-8.041,-5 -17.791,-7.542 -27.5,-7.375c-22.625,0.667 -41.291,22.375 -40.708,47.458c0.375,14.417 5.75,27.5 10.208,35.959c9.292,17.791 10,34.083 10.667,49.833c0.333,7.792 0.667,15.167 1.917,22.625c1.375,8.083 6.625,14.833 14.333,18.125c3,1.292 6.208,1.167 9.042,-0.292c3.208,-1.708 5.458,-4.916 6.25,-8.833c0.416,-2.125 0.833,-4.542 1.333,-7.208c3,-16.875 8.583,-48.25 21.875,-48.25c13.292,-0 18.917,31.625 21.917,48.583c0.458,2.667 0.916,5.083 1.333,7.25c0.75,3.833 2.958,6.958 6.125,8.625c1.458,0.75 3,1.167 4.625,1.167c1.417,-0 2.917,-0.334 4.375,-0.959c7.667,-3.291 13.083,-10.208 14.5,-18.5c1.25,-7.333 1.542,-14.583 1.875,-22.291c0.542,-12.917 1.125,-26.334 6.458,-40.542c1.542,-4.042 1.25,-8.625 -0.75,-12.625l-3.375,-6.792l-0.041,0Zm-3.667,16.459c-5.833,15.458 -6.417,29.541 -7,43.125c-0.333,7.416 -0.625,14.416 -1.75,21.25c-0.958,5.5 -4.5,10.041 -9.792,12.333c-0.583,0.25 -1.083,0.25 -1.583,0c-0.875,-0.458 -1.583,-1.542 -1.833,-2.833c-0.417,-2.084 -0.834,-4.5 -1.292,-7.084c-3.917,-22.083 -9.833,-55.5 -30.125,-55.5c-20.292,0 -26.167,33.167 -30.083,55.125c-0.459,2.625 -0.875,5 -1.292,7.084c-0.292,1.375 -1,2.583 -1.958,3.041c-0.584,0.292 -1.167,0.334 -2.084,-0.041c-4.833,-2.084 -8.25,-6.5 -9.166,-11.792c-1.209,-6.917 -1.5,-14.042 -1.834,-21.542c-0.666,-15.875 -1.458,-33.875 -11.625,-53.375c-4.041,-7.666 -8.916,-19.458 -9.25,-32.291c-0.458,-20.584 14.459,-38.375 32.625,-38.917c8,-0.25 16.167,1.958 22.834,6.125c7.166,4.458 16.416,4.458 23.625,0c6.666,-4.167 14.791,-6.333 22.833,-6.125c1.042,0 2.083,0.125 3.125,0.25l-3.792,8.875c-1.958,4.542 -0.958,9.792 2.584,13.292l7.5,7.5c1.25,1.25 1.458,3.25 0.458,4.75l-7.25,10.916c-1.958,2.917 -2.542,6.542 -1.625,9.917c0.917,3.333 3.208,6.125 6.292,7.625l4.291,2.125c1.5,0.75 2.709,1.958 3.459,3.458l3.375,6.792c0.958,1.917 1.083,4.083 0.416,5.958l-0.083,-0.041Z" style="fill:#0098aa;fill-rule:nonzero;"/><path d="M100.833,37.083c0,0 -6.958,6.709 -16.916,6.709c-9.959,-0 -16.709,-6.542 -16.917,-6.709c-1.625,-1.625 -4.25,-1.625 -5.875,0c-1.625,1.625 -1.625,4.25 0,5.875c0.375,0.375 9.292,9.167 22.792,9.167c13.5,0 22.416,-8.792 22.791,-9.167c1.625,-1.625 1.625,-4.25 0,-5.875c-1.625,-1.625 -4.25,-1.625 -5.875,0Z" style="fill:#0098aa;fill-rule:nonzero;"/><path d="M158.208,8.5c-2.041,-0.625 -4.166,0.375 -5.041,2.333l-6.292,14.5c-2.083,4.834 -1,10.334 2.75,14.042l8.167,8.042c1.5,1.458 1.708,3.791 0.541,5.5l-7.958,11.791c-2.083,3.084 -2.708,6.875 -1.75,10.417c0.958,3.542 3.417,6.5 6.708,8.083l4.709,2.292c1.708,0.833 3.083,2.208 3.958,3.875l6.333,12.5c0.709,1.417 2.167,2.292 3.709,2.292l0.083,-0c1.583,-0 3.042,-0.959 3.708,-2.417c0.834,-1.833 1.75,-3.667 2.667,-5.5c4.875,-9.083 10.708,-23.167 11.125,-38.667c0.5,-22.458 -13.542,-43.083 -33.458,-49.083l0.041,0Zm15.834,82.208l-2.584,-5.083c-1.666,-3.25 -4.375,-5.958 -7.708,-7.583l-4.708,-2.334c-1.167,-0.541 -2,-1.541 -2.292,-2.75c-0.333,-1.208 -0.125,-2.5 0.625,-3.583l7.958,-11.75c3.417,-5.042 2.75,-11.792 -1.625,-16.083l-8.166,-8.042c-1.292,-1.292 -1.667,-3.167 -0.959,-4.792l4.75,-10.916c14.5,6.166 24.459,22.25 24.042,39.625c-0.333,13 -5.042,25 -9.292,33.333l-0.041,-0.042Z" style="fill:#0098aa;fill-rule:nonzero;"/><path d="M172.542,125l2.458,0c2.292,0 4.167,-1.875 4.167,-4.167c-0,-2.291 -1.875,-4.166 -4.167,-4.166l-12.5,-0c-2.292,-0 -4.167,1.875 -4.167,4.166l0,12.5c0,2.292 1.875,4.167 4.167,4.167c2.292,0 4.167,-1.875 4.167,-4.167l-0,-2.458l9.541,9.542c0.834,0.833 1.875,1.208 2.959,1.208c1.083,0 2.125,-0.417 2.958,-1.208c1.625,-1.625 1.625,-4.25 0,-5.875l-9.542,-9.542l-0.041,0Z" style="fill:#0098aa;fill-rule:nonzero;"/><path d="M172.542,158.333l2.458,0c2.292,0 4.167,-1.875 4.167,-4.166c-0,-2.292 -1.875,-4.167 -4.167,-4.167l-12.5,0c-2.292,0 -4.167,1.875 -4.167,4.167l0,12.5c0,2.291 1.875,4.166 4.167,4.166c2.292,0 4.167,-1.875 4.167,-4.166l-0,-2.459l9.541,9.542c0.834,0.833 1.875,1.208 2.959,1.208c1.083,0 2.125,-0.416 2.958,-1.208c1.625,-1.625 1.625,-4.25 0,-5.875l-9.542,-9.542l-0.041,0Z" style="fill:#0098aa;fill-rule:nonzero;"/></svg>