<?xml version="1.0" encoding="UTF-8" standalone="no"?><!DOCTYPE svg PUBLIC "-//W3C//DTD SVG 1.1//EN" "http://www.w3.org/Graphics/SVG/1.1/DTD/svg11.dtd"><svg width="100%" height="100%" viewBox="0 0 200 200" version="1.1" xmlns="http://www.w3.org/2000/svg" xmlns:xlink="http://www.w3.org/1999/xlink" xml:space="preserve" xmlns:serif="http://www.serif.com/" style="fill-rule:evenodd;clip-rule:evenodd;stroke-linejoin:round;stroke-miterlimit:2;"><path d="M49.625,88.208c2.292,0.375 5.417,0.792 9.083,1.209l3.959,15.75c0.458,1.875 2.125,3.166 4.041,3.166l4.667,0l1.542,12.334l-2.334,0.166c-2.291,0.167 -4.041,2.167 -3.875,4.459c0.167,2.208 2,3.875 4.167,3.875l0.292,-0l2.75,-0.209l1.541,12.375l-4.916,0.334c-2.292,0.166 -4.042,2.166 -3.875,4.458c0.166,2.208 2,3.875 4.166,3.875l0.292,0l5.333,-0.375l0.667,5.208c1.417,11.5 11.25,20.167 22.875,20.167c11.625,0 21.417,-8.667 22.875,-20.167l1.083,-8.583l5.542,-0.375c2.292,-0.167 4.042,-2.167 3.875,-4.458c-0.167,-2.292 -2.083,-4.084 -4.458,-3.875l-3.875,0.291l1.583,-12.583l2.875,-0.208c2.292,-0.167 4.042,-2.167 3.875,-4.459c-0.167,-2.291 -2.083,-4.083 -4.458,-3.875l-1.25,0.084l1.041,-8.417l4.667,-0c1.917,-0 3.583,-1.292 4.042,-3.167l3.958,-15.75c3.667,-0.416 6.75,-0.833 9.083,-1.208c4.292,-0.667 7.875,-3.417 9.584,-7.417c4.041,-9.416 6.5,-20.125 6.708,-29.333c0.542,-22.792 -16,-42.542 -36.125,-43.083c-8.625,-0.25 -17.292,2.125 -24.375,6.708c-3.792,2.417 -8.5,2.417 -12.292,-0c-7.125,-4.542 -15.666,-6.958 -24.416,-6.708c-20.084,0.541 -36.625,20.291 -36.125,43.083c0.208,9.208 2.666,19.917 6.708,29.333c1.708,4 5.292,6.75 9.583,7.417l-0.083,-0.042Zm65,65.584c-0.917,7.333 -7.208,12.875 -14.583,12.875c-7.375,-0 -13.667,-5.542 -14.584,-12.875l-0.583,-4.75l30.667,-2.209l-0.875,6.959l-0.042,-0Zm1.917,-15.375l-32.75,2.333l-1.542,-12.375l35.875,-2.542l-1.583,12.584Zm2.625,-21.042l-37.959,2.708l-1.458,-11.75l40.542,0l-1.125,9.042Zm10.916,-17.375l-60.166,0l-2.417,-9.708c8.75,0.75 19.667,1.375 32.5,1.375c12.833,-0 23.75,-0.625 32.5,-1.375l-2.417,9.708Zm-60.375,-83.333l0.959,-0c6.625,-0 13.25,1.916 18.708,5.416c6.542,4.209 14.708,4.209 21.292,0c5.75,-3.666 12.791,-5.583 19.666,-5.375c15.625,0.417 28.459,16.25 28,34.584c-0.208,8.208 -2.375,17.75 -6.041,26.25c-0.542,1.333 -1.75,2.25 -3.167,2.458c-8.167,1.25 -25.375,3.375 -49.125,3.375c-23.75,0 -40.958,-2.125 -49.125,-3.375c-1.417,-0.208 -2.625,-1.125 -3.167,-2.458c-3.625,-8.5 -5.833,-18.084 -6.041,-26.25c-0.417,-18.292 12.416,-34.125 28,-34.584l0.041,-0.041Z" style="fill:#0098aa;fill-rule:nonzero;"/><path d="M100,41.667c14.083,-0 23.375,-9.167 23.792,-9.542c1.625,-1.625 1.625,-4.25 -0,-5.875c-1.625,-1.625 -4.25,-1.625 -5.875,0c-0.084,0.083 -7.375,7.125 -17.917,7.125c-10.542,0 -17.708,-6.917 -17.875,-7.125c-1.625,-1.625 -4.25,-1.625 -5.875,0c-1.625,1.625 -1.625,4.25 0,5.875c0.375,0.375 9.708,9.542 23.792,9.542l-0.042,-0Z" style="fill:#0098aa;fill-rule:nonzero;"/><path d="M179.167,100l-29.167,0c-2.292,0 -4.167,1.875 -4.167,4.167c0,2.291 1.875,4.166 4.167,4.166l29.167,0c2.291,0 4.166,1.875 4.166,4.167l0,58.333c0,6.875 -5.625,12.5 -12.5,12.5l-141.666,0c-6.875,0 -12.5,-5.625 -12.5,-12.5l-0,-58.333c-0,-2.292 1.875,-4.167 4.166,-4.167l29.167,0c2.292,0 4.167,-1.875 4.167,-4.166c-0,-2.292 -1.875,-4.167 -4.167,-4.167l-29.167,0c-6.875,0 -12.5,5.625 -12.5,12.5l0,58.333c0,11.5 9.334,20.834 20.834,20.834l141.666,-0c11.5,-0 20.834,-9.334 20.834,-20.834l-0,-58.333c-0,-6.875 -5.625,-12.5 -12.5,-12.5Z" style="fill:#0098aa;fill-rule:nonzero;"/></svg>