<?xml version="1.0" encoding="UTF-8" standalone="no"?><!DOCTYPE svg PUBLIC "-//W3C//DTD SVG 1.1//EN" "http://www.w3.org/Graphics/SVG/1.1/DTD/svg11.dtd"><svg width="100%" height="100%" viewBox="0 0 2134 2134" version="1.1" xmlns="http://www.w3.org/2000/svg" xmlns:xlink="http://www.w3.org/1999/xlink" xml:space="preserve" xmlns:serif="http://www.serif.com/" style="fill-rule:evenodd;clip-rule:evenodd;stroke-linejoin:round;stroke-miterlimit:2;"><g id="Layer_x0020_1"><path d="M1306,1978.36c-98.731,-0 -132.474,-151.221 -132.474,-183.715l-0,-314.938c-0,-248.701 -239.953,-256.2 -239.953,-0l-0,323.687c-12.498,79.984 -71.236,231.205 -196.212,154.97c-99.98,-58.739 -222.457,-247.452 -248.701,-431.166c-36.243,-262.449 29.994,-202.461 -106.23,-468.659c-266.198,-524.897 124.976,-871.08 671.119,-606.131c546.144,-264.949 937.317,81.234 669.869,606.131c-134.973,264.949 -68.736,206.21 -104.979,468.659c-26.245,188.713 -184.964,451.162 -312.439,451.162Zm-82.484,-184.964c9.998,68.736 43.741,169.967 121.226,122.476c87.483,-52.49 201.211,-228.706 223.707,-396.173c36.243,-257.45 -29.994,-207.459 111.228,-483.655c248.701,-488.655 -109.979,-786.097 -614.88,-533.646c-7.499,2.499 -14.997,2.499 -22.496,-0c-504.901,-252.451 -863.581,44.991 -614.879,533.646c141.222,274.946 74.985,226.205 111.228,483.655c27.494,197.462 201.21,442.414 281.195,404.921c28.744,-13.747 53.739,-63.737 63.737,-127.475l0,-317.438c0,-323.687 339.934,-316.188 339.934,-0l0,313.689Z" style="fill:#0098aa;"/><path d="M514.899,844.835c-13.747,-0 -24.995,-11.248 -24.995,-24.995c0,-146.222 119.977,-264.948 266.198,-264.948c32.494,-0 32.494,49.99 0,49.99c-118.726,-0 -216.207,96.231 -216.207,214.958c-0,13.747 -11.248,24.995 -24.996,24.995Z" style="fill:#0098aa;"/><path d="M1592.19,844.835c-13.747,-0 -24.995,-11.248 -24.995,-24.995c-0,-118.727 -97.481,-214.958 -216.208,-214.958c-32.494,-0 -32.494,-49.99 0,-49.99c146.222,-0 266.198,118.726 266.198,264.948c0,13.747 -11.248,24.995 -24.995,24.995Z" style="fill:#0098aa;"/><path d="M1308.49,1181.02c-22.495,0 -29.994,-29.994 -42.491,-56.239c-46.241,-98.73 -51.24,-84.983 -159.969,-137.473c-18.746,-8.748 -18.746,-36.243 -0,-44.991c138.723,-67.487 112.478,-41.242 179.965,-179.965c8.748,-18.746 36.243,-18.746 44.991,0c66.237,138.723 39.992,112.478 179.965,179.965c18.746,8.748 18.746,36.243 -0,44.991c-143.722,68.737 -111.228,41.242 -179.965,179.965c-4.999,8.748 -12.498,13.747 -22.496,13.747Zm-132.474,-216.207c86.233,39.992 92.482,46.241 132.474,132.474c39.993,-86.233 46.241,-92.482 132.475,-132.474c-86.234,-41.242 -92.482,-46.241 -132.475,-132.475c-41.242,86.234 -47.49,92.482 -132.474,132.475Z" style="fill:#0098aa;"/><path d="M1957.12,1475.96c-22.496,-0 -28.745,-24.995 -38.743,-48.741c-36.243,-74.985 -37.492,-63.737 -123.726,-104.979c-18.746,-8.749 -18.746,-36.243 0,-44.991c106.23,-51.24 88.733,-33.744 138.723,-139.973c9.998,-18.746 36.243,-18.746 46.241,-0c49.991,106.229 32.494,88.733 138.723,139.973c18.747,8.748 18.747,36.242 0,44.991c-108.729,51.24 -87.483,32.493 -138.723,138.723c-4.999,8.748 -13.747,14.997 -22.495,14.997Zm-93.732,-176.216c56.239,26.245 66.237,36.243 93.732,92.482c26.245,-56.239 36.243,-66.237 92.482,-92.482c-56.239,-27.494 -66.237,-36.243 -92.482,-92.482c-27.495,56.239 -37.493,64.988 -93.732,92.482Z" style="fill:#0098aa;"/><path d="M176.216,506.151c-21.246,0 -27.495,-24.995 -38.743,-47.491c-34.993,-74.985 -36.243,-64.987 -123.726,-106.229c-18.746,-8.748 -18.746,-36.243 0,-44.991c108.729,-51.24 88.733,-32.494 139.973,-138.723c8.748,-19.996 36.243,-18.746 44.991,0c51.24,106.229 32.494,87.483 139.973,138.723c18.746,8.748 18.746,36.243 -0,44.991c-108.729,52.49 -88.733,33.744 -139.973,139.973c-3.749,8.748 -12.497,13.747 -22.495,13.747Zm-92.482,-176.215c56.239,27.494 64.987,36.242 92.482,93.731c27.494,-57.489 36.243,-66.237 92.482,-93.731c-56.239,-26.245 -64.988,-36.243 -92.482,-92.482c-27.495,56.239 -36.243,66.237 -92.482,92.482Z" style="fill:#0098aa;"/><path d="M761.101,1051.05c-13.747,-0 -24.995,-11.248 -24.995,-24.995l0,-93.732c0,-33.744 49.99,-33.744 49.99,-0l0,93.732c0,13.747 -11.247,24.995 -24.995,24.995Z" style="fill:#0098aa;"/><path d="M761.101,1297.25c-13.747,-0 -24.995,-11.248 -24.995,-24.995l0,-94.982c0,-32.494 49.99,-32.494 49.99,0l0,94.982c0,13.747 -11.247,24.995 -24.995,24.995Z" style="fill:#0098aa;"/><path d="M931.068,1127.28l-94.981,-0c-32.494,-0 -32.494,-49.99 -0,-49.99l94.981,-0c32.494,-0 32.494,49.99 0,49.99Z" style="fill:#0098aa;"/><path d="M684.866,1127.28l-94.981,-0c-32.494,-0 -32.494,-49.99 -0,-49.99l94.981,-0c32.494,-0 32.494,49.99 0,49.99Z" style="fill:#0098aa;"/></g></svg>