<?xml version="1.0" encoding="UTF-8" standalone="no"?><!DOCTYPE svg PUBLIC "-//W3C//DTD SVG 1.1//EN" "http://www.w3.org/Graphics/SVG/1.1/DTD/svg11.dtd"><svg width="100%" height="100%" viewBox="0 0 2134 2134" version="1.1" xmlns="http://www.w3.org/2000/svg" xmlns:xlink="http://www.w3.org/1999/xlink" xml:space="preserve" xmlns:serif="http://www.serif.com/" style="fill-rule:evenodd;clip-rule:evenodd;stroke-linejoin:round;stroke-miterlimit:2;"><path d="M581.408,1858.62c-113.004,-25.734 -230.258,-22.041 -339.091,10.684l-133.059,40.01c-18.783,5.643 -31.454,-5.695 -36.033,-10.834c-4.579,-5.138 -14.687,-19.362 -9.654,-40.435l39.567,-165.7c28.55,-119.56 33.275,-244.124 13.662,-360.229c-7.792,-46.111 -11.742,-95.21 -11.742,-145.931c0,-50.722 3.95,-99.821 11.742,-145.936c19.613,-116.101 14.888,-240.665 -13.662,-360.23l-39.567,-165.7c-5.033,-21.073 5.075,-35.296 9.654,-40.435c4.579,-5.134 17.25,-16.481 36.029,-10.833l133.063,40.009c76.516,23.004 156.008,31.767 236.266,26.025c17.146,-1.225 30.159,-17.814 29.067,-37.055c-1.092,-19.24 -15.896,-33.865 -33.021,-32.617c-73.496,5.256 -146.241,-2.754 -216.208,-23.789l-133.063,-40.01c-34.741,-10.445 -70.683,0.36 -96.12,28.9c-25.442,28.55 -35.067,68.872 -25.759,107.872l39.567,165.7c26.146,109.489 30.512,223.308 12.633,329.16c-8.512,50.389 -12.829,103.86 -12.829,158.934c0,55.074 4.317,108.545 12.829,158.934c17.879,105.856 13.509,219.68 -12.633,329.16l-39.567,165.7c-9.308,38.995 0.317,79.322 25.759,107.867c19.054,21.382 43.991,32.809 69.912,32.809c8.688,-0 17.488,-1.286 26.208,-3.904l133.059,-40.01c99.587,-29.943 207,-33.3 310.616,-9.702c16.834,3.83 33.255,-8.374 36.671,-27.263c3.421,-18.89 -7.458,-37.317 -24.296,-41.151Z" style="fill:#0098aa;fill-rule:nonzero;"/><path d="M2090.29,1674.28c-26.145,-109.485 -30.512,-223.304 -12.633,-329.16c8.513,-50.39 12.829,-103.865 12.829,-158.934c0,-55.07 -4.316,-108.541 -12.829,-158.935c-17.879,-105.851 -13.512,-219.67 12.633,-329.16l39.567,-165.699c9.309,-38.995 -0.317,-79.323 -25.758,-107.867c-25.438,-28.545 -61.371,-39.346 -96.125,-28.905l-133.059,40.009c-113.82,34.231 -235.916,33.702 -353.087,-1.505c-131.642,-39.556 -284.779,-59.615 -455.163,-59.615c-170.383,0 -323.52,20.059 -455.162,59.615c-16.596,4.984 -26.446,24.126 -22,42.744c4.442,18.623 21.496,29.681 38.092,24.688c126.391,-37.98 274.116,-57.235 439.07,-57.235c164.955,0 312.675,19.259 439.071,57.235c127.696,38.377 260.925,38.892 385.279,1.505l133.059,-40.009c18.771,-5.653 31.45,5.695 36.033,10.833c4.579,5.139 14.688,19.362 9.654,40.435l-39.566,165.7c-28.55,119.565 -33.275,244.129 -13.663,360.23c7.788,46.115 11.738,95.214 11.738,145.936c-0,50.721 -3.95,99.82 -11.738,145.931c-19.612,116.101 -14.887,240.669 13.663,360.229l39.566,165.7c5.034,21.073 -5.075,35.297 -9.654,40.435c-4.579,5.134 -17.25,16.486 -36.029,10.834l-133.058,-40.01c-124.35,-37.386 -257.575,-36.867 -385.284,1.506c-21.262,6.391 -43.287,12.273 -65.875,17.632c21.854,-44.003 37.763,-92.344 46.229,-143.814c66.896,-24.098 116.834,-120.084 122.359,-204.273c4.183,-63.683 -17.921,-102.135 -37.2,-123.175c-6.225,-6.794 -13.209,-12.793 -20.738,-18.146l0,-219.157c0,-217.155 -157.437,-393.824 -350.954,-393.824l-263.042,0c-193.516,0 -350.954,176.669 -350.954,393.824l0,217.272c-8.6,5.793 -16.5,12.428 -23.471,20.035c-19.279,21.041 -41.383,59.493 -37.204,123.175c5.817,88.608 59.642,185.745 128.129,206.112c37.38,222.359 212.313,386.866 416.388,386.866c125.975,0 240.771,-62.733 319.029,-163.002c46.379,-8.636 91.254,-19.418 133.4,-32.089c117.171,-35.212 239.263,-35.731 353.083,-1.505l133.063,40.009c8.721,2.623 17.517,3.904 26.204,3.904c25.921,0 50.863,-11.427 69.917,-32.808c25.441,-28.55 35.066,-68.873 25.758,-107.867l-39.567,-165.7Zm-1020.89,389.242c-180.963,-0 -335.067,-151.589 -358.467,-352.613c-2.046,-17.571 -15.291,-30.584 -31.283,-30.383c-40.388,0.66 -88.046,-74.048 -92.725,-145.3c-1.942,-29.582 4.296,-52.465 18.537,-68.007c13.5,-14.733 34.484,-23.668 60.688,-25.833c2.833,-0.233 5.596,-0.238 8.446,-0.018c8.579,0.673 17.066,-2.698 23.371,-9.3c6.304,-6.602 9.883,-15.846 9.883,-25.52l-0,-149.162c-0,-60.755 44.05,-110.181 98.192,-110.181l331.133,-0c17.179,-0 31.104,-15.626 31.104,-34.904c0,-19.277 -13.925,-34.903 -31.104,-34.903l-331.133,-0c-79.613,-0 -145.834,65.435 -158.275,150.887l-0,-48.393c-0,-178.661 129.529,-324.012 288.741,-324.012l263.042,0c159.212,0 288.742,145.351 288.742,324.012l-0,33.534c-17.534,-78.065 -80.609,-136.024 -155.542,-136.024l-43.5,0c-17.179,0 -31.104,15.626 -31.104,34.904c-0,19.278 13.925,34.903 31.104,34.903l43.504,0c54.142,0 98.188,49.427 98.188,110.182l-0,148.947c-0,9.29 3.304,18.202 9.175,24.753c5.829,6.503 13.712,10.15 21.929,10.15l0.183,0c1.942,-0.004 3.508,0.038 4.954,0.159c26.2,2.165 47.188,11.096 60.688,25.833c14.241,15.542 20.475,38.425 18.537,68.007c-4.529,68.985 -49.808,142.266 -89.716,145.207c-14.821,1.094 -26.888,13.793 -28.805,30.326c-23.345,201.095 -177.458,352.749 -358.487,352.749Z" style="fill:#0098aa;fill-rule:nonzero;"/><path d="M1138.99,1718.22c-19.046,18.511 -44.729,28.708 -72.325,28.708c-27.596,0 -53.279,-10.197 -72.325,-28.708c-12.979,-12.624 -32.625,-11.044 -43.875,3.526c-11.25,14.569 -9.842,36.614 3.141,49.234c30.35,29.508 70.505,45.756 113.059,45.756c42.554,-0 82.708,-16.253 113.058,-45.756c12.983,-12.62 14.392,-34.665 3.142,-49.234c-11.246,-14.574 -30.896,-16.155 -43.875,-3.526Z" style="fill:#0098aa;fill-rule:nonzero;"/><path d="M1319.43,1466.39c-16.391,-5.746 -33.841,4.531 -38.954,22.939c-4.625,16.655 -18.196,27.839 -33.767,27.839c-15.57,-0 -29.141,-11.189 -33.766,-27.839c-5.113,-18.403 -22.55,-28.671 -38.954,-22.939c-16.4,5.737 -25.555,25.31 -20.442,43.713c12.771,45.98 50.208,76.877 93.158,76.877c42.95,-0 80.388,-30.897 93.159,-76.877c5.12,-18.408 -4.03,-37.976 -20.434,-43.713Z" style="fill:#0098aa;fill-rule:nonzero;"/><path d="M985.242,1510.1c5.112,-18.403 -4.038,-37.976 -20.442,-43.713c-16.392,-5.746 -33.842,4.531 -38.954,22.939c-4.625,16.655 -18.196,27.839 -33.763,27.839c-15.566,-0 -29.141,-11.189 -33.766,-27.839c-5.113,-18.403 -22.555,-28.671 -38.955,-22.939c-16.4,5.737 -25.554,25.31 -20.441,43.713c12.771,45.98 50.212,76.877 93.158,76.877c42.954,-0 80.392,-30.897 93.163,-76.877Z" style="fill:#0098aa;fill-rule:nonzero;"/><path d="M1580.6,937.68c-0,28.657 14.65,38.05 39.767,38.05l186.283,0c19.675,0 35.583,-11.277 35.583,-32.411c0,-21.139 -15.908,-32.416 -35.583,-32.416l-133.954,-0l157.816,-210.446c6.284,-7.986 9.629,-18.319 9.629,-27.713c0,-26.777 -14.233,-35.231 -31.812,-35.231l-180.842,0c-19.675,0 -35.583,11.273 -35.583,32.412c0,21.139 15.908,32.416 35.583,32.416l119.725,0l-155.308,205.747c-6.279,8.453 -11.304,17.379 -11.304,29.592Z" style="fill:#0098aa;fill-rule:nonzero;"/><path d="M1733.32,372.176l145.812,-0c10.584,-0 23.125,-6.597 23.125,-25.071c0,-18.473 -12.541,-25.071 -23.125,-25.071l-94.071,0l105.83,-130.197c5.487,-6.598 9.016,-14.518 9.016,-21.555c0,-16.715 -8.233,-28.152 -23.521,-28.152l-136.012,-0c-10.584,-0 -23.125,6.602 -23.125,25.075c-0,18.474 12.541,25.071 23.125,25.071l82.708,0l-107.792,131.512c-5.095,6.158 -7.445,14.073 -7.445,23.312c-0,12.76 8.62,25.076 25.475,25.076Z" style="fill:#0098aa;fill-rule:nonzero;"/><path d="M1503.79,172.129l109.108,-0c7.921,-0 17.304,-4.938 17.304,-18.759c0,-13.826 -9.387,-18.758 -17.304,-18.758l-70.392,-0l79.192,-97.422c4.108,-4.937 6.746,-10.861 6.746,-16.126c-0,-12.508 -6.159,-21.064 -17.6,-21.064l-101.775,0c-7.921,0 -17.304,4.937 -17.304,18.763c-0,13.826 9.387,18.759 17.304,18.759l61.887,-0l-80.658,98.408c-3.813,4.61 -5.571,10.534 -5.571,17.445c0,9.538 6.454,18.754 19.063,18.754Z" style="fill:#0098aa;fill-rule:nonzero;"/></svg>