<?xml version="1.0" encoding="UTF-8" standalone="no"?><!DOCTYPE svg PUBLIC "-//W3C//DTD SVG 1.1//EN" "http://www.w3.org/Graphics/SVG/1.1/DTD/svg11.dtd"><svg width="100%" height="100%" viewBox="0 0 200 200" version="1.1" xmlns="http://www.w3.org/2000/svg" xmlns:xlink="http://www.w3.org/1999/xlink" xml:space="preserve" xmlns:serif="http://www.serif.com/" style="fill-rule:evenodd;clip-rule:evenodd;stroke-linejoin:round;stroke-miterlimit:2;"><path d="M46.167,79.167l24.666,-0l0,8.333l-21.125,0c-1.458,0 -2.833,0.792 -3.583,2.042c-0.75,1.25 -0.792,2.833 -0.083,4.125c7.458,13.541 8.083,26.75 8.666,39.5c0.292,6.25 0.584,12.166 1.625,18c1.209,6.583 5.667,12.041 12.167,14.708c2.708,1.083 5.542,0.958 8.083,-0.375c2.709,-1.458 4.667,-4.125 5.334,-7.333c0.333,-1.625 0.708,-3.542 1.083,-5.584c2.375,-12.75 6.833,-36.5 17.042,-36.5c10.208,0 14.666,23.917 17.041,36.75c0.375,2.042 0.75,3.959 1.084,5.584c0.666,3.166 2.541,5.791 5.208,7.208c1.333,0.708 2.792,1.083 4.292,1.083c1.25,0 2.541,-0.25 3.791,-0.791c6.5,-2.667 11.084,-8.25 12.292,-15c1.042,-5.792 1.25,-11.709 1.5,-17.959c0.5,-12.666 1.042,-25.791 8.417,-39.25c0.708,-1.291 0.708,-2.875 -0.084,-4.125c-0.75,-1.25 -2.125,-2.041 -3.583,-2.041l-20.833,-0l-0,-8.334l25,0c1.458,0 2.833,-0.791 3.583,-2.041c4.958,-8.334 8.625,-21.167 8.917,-31.209c0.25,-9.416 -3.459,-18.916 -10.167,-25.958c-6.875,-7.25 -16.083,-11.375 -25.958,-11.583c-8.5,-0.209 -17.084,1.833 -24.125,5.708c-3.875,2.125 -8.917,2.125 -12.792,0c-7.042,-3.875 -15.625,-5.917 -24.125,-5.708c-9.833,0.25 -19.083,4.333 -25.958,11.583c-6.709,7.083 -10.417,16.542 -10.167,25.958c0.25,9.709 4.083,22.542 9.25,31.209c0.75,1.25 2.125,2.041 3.583,2.041l-0.041,-0.041Zm90.75,53.416c-0.25,5.959 -0.459,11.584 -1.375,16.834c-0.667,3.833 -3.459,7.208 -7.417,8.833c-0.292,0.125 -0.542,0.125 -0.833,0c-0.375,-0.208 -0.834,-0.708 -1,-1.542c-0.334,-1.583 -0.667,-3.458 -1.042,-5.416c-3.25,-17.334 -8.125,-43.542 -25.25,-43.542c-17.125,0 -22,26.042 -25.208,43.292c-0.375,2 -0.709,3.833 -1.042,5.416c-0.208,0.917 -0.708,1.459 -1.083,1.667c-0.292,0.167 -0.625,0.167 -1.209,-0.042c-3.583,-1.458 -6.25,-4.666 -6.916,-8.375c-0.959,-5.25 -1.209,-10.916 -1.5,-16.875c-0.5,-11.291 -1.125,-23.875 -6.667,-36.958l87,0c-5.5,13 -6,25.5 -6.458,36.75l-0,-0.042Zm-16.084,-45.083l-41.666,0l-0,-8.333l41.666,-0l0,8.333Zm-71.25,-61.833c5.334,-5.625 12.5,-8.834 20.125,-9c7.042,-0.125 14.125,1.5 19.917,4.666c6.333,3.459 14.458,3.459 20.792,0c5.791,-3.166 12.875,-4.791 19.916,-4.666c7.625,0.166 14.75,3.375 20.125,9c5.209,5.458 8.084,12.791 7.875,20c-0.208,7.833 -2.916,18 -6.625,25.166l-103.083,0c-3.833,-7.333 -6.708,-17.708 -6.917,-25.125c-0.208,-7.25 2.667,-14.541 7.875,-20l0,-0.041Z" style="fill:#0098aa;fill-rule:nonzero;"/><path d="M100,42.375c12.75,0 21.25,-7.958 21.625,-8.292c1.667,-1.583 1.708,-4.208 0.167,-5.875c-1.584,-1.666 -4.209,-1.75 -5.875,-0.166c-0.084,0.041 -6.542,6 -15.875,6c-9.334,-0 -15.709,-5.834 -15.875,-6c-1.667,-1.584 -4.292,-1.5 -5.875,0.166c-1.584,1.667 -1.542,4.292 0.125,5.875c0.375,0.334 8.833,8.292 21.625,8.292l-0.042,0Z" style="fill:#0098aa;fill-rule:nonzero;"/><path d="M179.167,108.333l-20.834,0c-2.291,0 -4.166,1.875 -4.166,4.167c-0,2.292 1.875,4.167 4.166,4.167l20.834,-0c2.291,-0 4.166,1.875 4.166,4.166l0,50c0,6.875 -5.625,12.5 -12.5,12.5l-141.666,0c-6.875,0 -12.5,-5.625 -12.5,-12.5l-0,-50c-0,-2.291 1.875,-4.166 4.166,-4.166l20.834,-0c2.291,-0 4.166,-1.875 4.166,-4.167c0,-2.292 -1.875,-4.167 -4.166,-4.167l-20.834,0c-6.875,0 -12.5,5.625 -12.5,12.5l0,50c0,11.5 9.334,20.834 20.834,20.834l141.666,-0c11.5,-0 20.834,-9.334 20.834,-20.834l-0,-50c-0,-6.875 -5.625,-12.5 -12.5,-12.5Z" style="fill:#0098aa;fill-rule:nonzero;"/></svg>