<?xml version="1.0" encoding="UTF-8" standalone="no"?><!DOCTYPE svg PUBLIC "-//W3C//DTD SVG 1.1//EN" "http://www.w3.org/Graphics/SVG/1.1/DTD/svg11.dtd"><svg width="100%" height="100%" viewBox="0 0 200 200" version="1.1" xmlns="http://www.w3.org/2000/svg" xmlns:xlink="http://www.w3.org/1999/xlink" xml:space="preserve" xmlns:serif="http://www.serif.com/" style="fill-rule:evenodd;clip-rule:evenodd;stroke-linejoin:round;stroke-miterlimit:2;"><path d="M104.167,158.333c-2.292,0 -4.167,1.875 -4.167,4.167l0,8.333c0,2.292 -1.875,4.167 -4.167,4.167l-33.333,0c-2.292,0 -4.167,-1.875 -4.167,-4.167l0,-33.333c0,-11.5 9.334,-20.833 20.834,-20.833c6.75,-0 13.125,3.291 17.041,8.833c1.334,1.875 3.917,2.333 5.792,1c1.875,-1.333 2.333,-3.917 1,-5.792c-5.458,-7.75 -14.375,-12.375 -23.833,-12.375c-16.084,0 -29.167,13.084 -29.167,29.167l0,33.333c0,6.875 5.625,12.5 12.5,12.5l33.333,0c6.875,0 12.5,-5.625 12.5,-12.5l0,-8.333c0,-2.292 -1.875,-4.167 -4.166,-4.167Z" style="fill:#0098aa;fill-rule:nonzero;"/><path d="M181.375,8.833c-6.917,-1.25 -17.542,0 -31.042,1.667c-13.958,1.667 -31.291,3.75 -50.333,3.75c-19.042,0 -36.375,-2.083 -50.333,-3.75c-13.5,-1.625 -24.125,-2.917 -31.042,-1.667c-5.958,1.084 -10.292,6.25 -10.292,12.292l0,74.708c0,2.292 1.875,4.167 4.167,4.167l16.667,0c3.125,0 5.958,-1.208 8.166,-3.125c2.292,2.083 5.334,3.417 8.792,3.417l4.167,-0.292c1.291,-0.083 2.458,-0.792 3.166,-1.833l4.834,-7.25l4.875,7.5c0.75,1.166 2.083,1.916 3.5,1.916l4.166,0c3.209,0 6.125,-1.25 8.334,-3.25c2.208,2 5.125,3.25 8.333,3.25l25,0c3.208,0 6.125,-1.25 8.333,-3.25c2.209,2 5.125,3.25 8.334,3.25l25,0c3.291,0 6.291,-1.291 8.5,-3.416c2.208,1.916 5.041,3.083 8.166,3.083l16.667,0c2.292,0 4.167,-1.875 4.167,-4.167l-0,-74.708c-0,-6.042 -4.334,-11.208 -10.292,-12.292Zm-152.208,82.834l-12.5,-0l-0,-41.5c9.208,-0 16.666,7.458 16.666,16.583l0,20.75c0,2.292 -1.875,4.125 -4.166,4.125l-0,0.042Zm41.666,0.291l-1.916,0l-7.084,-10.916c-0.75,-1.167 -2.083,-1.875 -3.458,-1.917c-1.375,0 -2.708,0.708 -3.458,1.875l-7.209,10.792l-1.833,0.125c-2.292,-0 -4.167,-1.875 -4.167,-4.167l0,-20.833c0,-9.209 7.459,-16.667 16.667,-16.667c9.208,0 16.667,7.458 16.667,16.667l-0,20.833c-0,2.292 -1.875,4.167 -4.167,4.167l-0.042,0.041Zm41.667,0l-25,0c-2.292,0 -4.167,-1.875 -4.167,-4.166l0,-20.834c0,-9.208 7.459,-16.666 16.667,-16.666c9.208,-0 16.667,7.458 16.667,16.666l-0,20.834c-0,2.291 -1.875,4.166 -4.167,4.166Zm45.833,-4.166c0,2.291 -1.875,4.166 -4.166,4.166l-25,0c-2.292,0 -4.167,-1.875 -4.167,-4.166l0,-20.834c0,-9.208 7.458,-16.666 16.667,-16.666c9.208,-0 16.666,7.458 16.666,16.666l0,20.834Zm25,3.875l-12.5,-0c-2.291,-0 -4.166,-1.875 -4.166,-4.125l-0,-20.75c-0,-9.167 7.458,-16.584 16.666,-16.584l0,41.5l0,-0.041Zm0,-49.834c-8.708,0 -16.416,4.5 -20.875,11.25c-4.5,-6.708 -12.125,-11.125 -20.791,-11.125c-8.667,0 -16.334,4.459 -20.834,11.209c-4.5,-6.75 -12.125,-11.209 -20.833,-11.209c-8.708,0 -16.333,4.459 -20.833,11.209c-4.5,-6.75 -12.125,-11.209 -20.834,-11.209c-8.708,0 -16.291,4.417 -20.791,11.125c-4.459,-6.75 -12.167,-11.25 -20.875,-11.25l-0,-20.75c-0,-2 1.458,-3.708 3.416,-4.083c5.667,-1.042 15.792,0.208 28.584,1.75c14.166,1.708 31.791,3.833 51.333,3.833c19.542,0 37.167,-2.125 51.333,-3.833c12.792,-1.542 22.917,-2.75 28.584,-1.75c2,0.375 3.416,2.083 3.416,4.083l0,20.75Z" style="fill:#0098aa;fill-rule:nonzero;"/><path d="M132.5,128.708c-6.208,-4.333 -14.25,-4.875 -20.833,-1.541l-23.292,10.583c-3.875,1.75 -5.875,6 -4.833,10.25c1,4.125 4.541,6.917 8.666,6.625l25.125,-1.375c3.167,0.417 6.292,1.625 9,3.542l49.375,34.208c0.709,0.5 1.542,0.75 2.375,0.75c0.292,0 0.584,0 0.875,-0.083c1.125,-0.25 2.084,-0.959 2.709,-1.917l9.375,-15.625c1.125,-1.875 0.583,-4.333 -1.209,-5.583l-57.375,-39.709l0.042,-0.125Zm44.333,52.834l-45.708,-31.667c-3.917,-2.708 -8.458,-4.458 -13.125,-5l-0.75,0l-25.458,1.458c-0,0 -0.209,-0.416 -0,-1l23.416,-10.666c4.042,-2.042 8.709,-1.709 12.459,0.916l54.166,37.5l-5.083,8.459l0.083,-0Z" style="fill:#0098aa;fill-rule:nonzero;"/></svg>